<?xml version="1.0"?><svg width="1600" height="1200" xmlns="http://www.w3.org/2000/svg" xmlns:xlink="http://www.w3.org/1999/xlink">
 <title>palm tree</title>
 <defs>
  <linearGradient id="linearGradient3851">
   <stop stop-color="#a46a45" id="stop3853" offset="0"/>
   <stop stop-color="#b37f5e" offset="1" id="stop3859"/>
   <stop stop-color="#c29477" id="stop3855" offset="1"/>
  </linearGradient>
  <linearGradient id="linearGradient3843">
   <stop stop-color="#008000" id="stop3845" offset="0"/>
   <stop stop-color="#3c9c3c" id="stop3847" offset="1"/>
  </linearGradient>
  <radialGradient gradientUnits="userSpaceOnUse" gradientTransform="matrix(1,0,0,0.7772430181503296,-250.3585968017578,-28.073654174804688)" r="103.82128" fy="204.31067" fx="365.46414" cy="204.31067" cx="365.46414" id="radialGradient3849" xlink:href="#linearGradient3843"/>
  <linearGradient y2="0.559966" x2="0.406864" y1="0.559966" x1="0.696861" id="linearGradient3857" xlink:href="#linearGradient3851"/>
  <filter color-interpolation-filters="sRGB" id="filter3901">
   <feGaussianBlur id="feGaussianBlur3903" stdDeviation="3.242326"/>
  </filter>
  <filter color-interpolation-filters="sRGB" id="filter3919">
   <feGaussianBlur id="feGaussianBlur3921" stdDeviation="3.606742"/>
  </filter>
 </defs>
 <metadata id="metadata7">image/svg+xml</metadata>
 <g>
  <title>Layer 1</title>
  <g id="svg_8">
   <g id="svg_7">
    <g id="svg_5">
     <path fill="#bf5f00" stroke="#7f3f00" stroke-width="7" d="m533.932251,223.183731c-174.095947,292.302353 -330.493652,586.963669 -312.53894,908.152328c62.271545,2.512207 138.937195,37.91272 175.129425,-19.147949c-101.391022,-344.816833 86.634857,-612.192566 185.906036,-902.683578l-48.496521,13.679199z" id="path3049"/>
     <path fill="#bf5f00" stroke="#7f0000" stroke-width="5" d="m268.078796,772.460938l17.978668,-2.986816l8.082672,10.94165l14.818573,-9.573914c0,0 18.859894,34.192383 24.248535,30.089233c5.388519,-4.103088 20.20694,-28.72168 20.20694,-28.72168l16.165649,20.515503l9.82666,-16.109436" id="path3057"/>
     <path fill="#bf5f00" stroke="#7f3f00" stroke-width="5" d="m287.995117,709.601685l27.699219,0.273254l14.818573,9.573792l20.207031,-15.044739l20.207123,19.147766l16.16568,-12.309265l0.928772,20.345276" id="path3059"/>
     <path opacity="0.830287" fill="#bf5f00" stroke="#7f3f00" stroke-width="7" stroke-miterlimit="4" filter="url(#filter3919)" id="path3905" d="m534.123108,211.183731c-174.095917,292.302322 -330.493652,586.963669 -312.538986,908.152328c62.271622,2.512207 138.937302,37.91272 175.12944,-19.147949c-101.390991,-344.816833 86.634918,-612.192566 185.906128,-902.683578l-48.496582,13.679199z"/>
    </g>
    <path fill="none" stroke="#7f3f00" stroke-width="5" d="m221.394821,1043.439941l26.942795,-19.147827l8.082794,12.309448l26.942657,-10.94165l9.429962,2.735229l51.191376,-12.309021l2.694153,9.573792l28.08847,-4.385742" id="path3051"/>
    <path fill="none" stroke="#7f0000" stroke-width="5" d="m231.546204,953.572266l12.750046,-8.606628l14.818436,15.044739l37.719849,-17.780151l5.388519,15.044678l33.678497,-15.044678l4.041351,10.941711l17.512909,-5.470947l10.575409,2.313843" id="path3053"/>
    <path fill="none" stroke="#7f3f00" stroke-width="5" d="m247.711807,860.168518l30.262833,-6.838562l9.429932,17.779907l10.777039,-23.250732l14.818542,23.250732l26.942749,-15.044739l13.471466,16.412598l17.512695,-2.735413" id="path3055"/>
    <path fill="none" stroke="#7f0000" stroke-width="5" id="path3061" d="m314.622253,649.569153l22.626343,12.862488l16.16568,-9.573853l12.124176,21.88324l18.859985,-13.676941l6.735748,17.780029l16.983826,-13.041931"/>
    <path fill="none" stroke="#7f3f00" stroke-width="5" id="path3063" d="m334.983612,601.482849l17.083557,-1.96521c0,0 -5.388611,10.941589 0,10.941589c5.388519,0 28.289917,-17.780273 28.289917,-17.780273l-5.388611,19.147827l24.248505,-4.103027l18.859894,16.412415l1.347046,0"/>
    <path fill="#bf5f00" stroke="#7f0000" stroke-width="5" id="path3065" d="m367.963409,520.202759l16.435028,2.297607c0,0 0,17.78009 9.429932,16.412354c9.429993,-1.367676 14.818604,-2.735352 14.818604,-2.735352l18.859924,12.309204l10.777069,0l-0.689117,20.105469"/>
    <path fill="#bf5f00" stroke="#7f3f00" stroke-width="7" id="path3067" d="m394.9664,466.126709l27.151886,0.298035c0,0 -9.429993,15.044678 0,13.677063c9.429932,-1.367828 25.595642,-5.470856 25.595642,-5.470856l1.347076,15.044647l14.818542,-5.470764l4.041382,9.573883"/>
    <path fill="#bf5f00" stroke="#7f0000" stroke-width="7" id="path3069" d="m420.927094,416.739471l18.703949,-3.654968l4.041443,13.676971l22.901306,-8.206146l4.041504,12.309235l10.7771,-5.470764l1.347015,10.941589l9.429932,1.367706"/>
    <path fill="#bf5f00" stroke="#7f3f00" stroke-width="7" id="path3071" d="m449.397003,364.770142l19.871124,-2.290497c0,0 5.388611,20.515472 10.777222,17.78006c5.388489,-2.735443 21.554077,-6.83847 21.554077,-6.83847l4.041504,15.044647l6.735596,1.367706"/>
    <path fill="#bf5f00" stroke="#7f0000" stroke-width="7" id="path3073" d="m478.69809,313.242432l12.124207,0l18.859955,15.044708l9.429932,-4.103027l18.795044,-1.389801"/>
   </g>
   <g id="svg_3">
    <path fill="#00bf00" stroke="#bf5f00" stroke-width="1px" id="path3047" d="m560.792236,222.754272c-69.234741,18.1138 -119.092896,65.734344 -175.129517,103.945648l0,-93.004608c-16.951172,37.158203 -40.914673,69.567749 -37.719849,120.359131l-83.52301,101.207428l-13.469788,-101.207428c-45.863525,60.177673 -24.75177,120.355286 -32.333496,180.536682c-12.57196,16.513123 -25.143982,8.551392 -37.71991,57.443359c-123.204285,-273.568115 50.374939,-340.776825 299.065735,-413.048141l-37.719849,-8.202942l40.412964,-27.354507l-75.439697,10.940994l-67.356323,10.941086l35.026733,-38.295563l-53.886658,46.502228l-80.826111,13.675369l16.162903,-68.384354l-48.496277,65.650116l-96.992859,60.177612c2.855347,-267.957844 338.50177,-147.526001 436.471497,-84.797852l-29.636475,-35.557434l35.026733,-16.413467l-61.970093,2.734283l-43.106323,-13.675323l24.24646,-21.882042l-59.272949,16.409584l-35.026733,-24.616379l32.333496,-24.620209l-70.053345,8.206749c99.335205,-88.569965 214.712646,-18.006615 242.48584,101.211372l-2.693237,-54.709091c24.834839,14.678711 60.668701,26.167374 37.719971,54.709091c148.461548,-24.317749 190.97937,-24.21817 207.459106,112.148483l-43.109985,-30.088837l-18.859863,-49.236542l0,41.029785l-26.943237,-8.206665l-29.636597,-49.236664l0,35.561279l-75.439697,-13.675308c322.225464,111.076187 253.262451,143.267471 253.262451,380.217361l-40.413086,-82.059692l13.469727,-112.152313l-24.249878,82.063599l-24.24646,-51.974762l-10.776611,-87.532166l-8.083374,54.709015l-43.109985,-35.561249l-13.469849,-68.38446l-8.083252,46.50235l-88.909546,-82.063568c120.628174,169.251068 148.205078,234.070068 29.636597,391.162292l-10.776611,-128.562012c25.162964,-31.547852 39.281372,-57.125458 29.636475,-95.738831l-48.49646,62.911926l-10.780273,-76.591095c9.056519,-20.894073 25.509888,-34.278412 21.557007,-68.384369l-43.110229,21.881989l-43.106201,-117.620941z"/>
    <path opacity="0.8" fill="#007f00" stroke="#007f3f" stroke-width="4.5" stroke-miterlimit="4" filter="url(#filter3901)" d="m563.400391,238.277618c-68.592163,19.25177 -117.987793,69.863861 -173.504395,110.475769l0,-98.847412c-16.794067,39.492676 -40.535034,73.938171 -37.369934,127.920441l-82.748169,107.565552l-13.344604,-107.565552c-45.438049,63.958221 -24.522156,127.916138 -32.033569,191.87854c-12.4552,17.550415 -24.910645,9.088623 -37.369812,61.052002c-122.061157,-290.754395 49.907471,-362.185303 296.290771,-438.996964l-37.369873,-8.718201l40.037964,-29.073013l-74.739746,11.628311l-66.731323,11.628433l34.701782,-40.701385l-53.386597,49.42366l-80.076233,14.53447l16.013,-72.680435l-48.046448,69.77446l-96.092773,63.958069c2.828857,-284.791641 335.360901,-156.79393 432.421692,-90.125076l-29.361572,-37.791214l34.701538,-17.444656l-61.394897,2.906082l-42.706299,-14.53447l24.021362,-23.256729l-58.723022,17.440521l-34.70166,-26.162857l32.033447,-26.166885l-69.40332,8.722267c98.413452,-94.134148 212.720581,-19.137825 240.23584,107.569725l-2.668213,-58.146042c24.60437,15.600906 60.105835,27.811218 37.369995,58.146042c147.083984,-25.845383 189.207275,-25.739578 205.53418,119.193939l-42.710205,-31.979034l-18.684692,-52.329681l0,43.607361l-26.693359,-8.722321l-29.36145,-52.329742l0,37.795319l-74.739868,-14.534439c319.235718,118.054337 250.91272,152.267929 250.91272,404.103683l-40.03833,-87.214966l13.344971,-119.197998l-24.025146,87.219055l-24.02124,-55.240082l-10.676514,-93.031097l-8.008667,58.145996l-42.709961,-37.795288l-13.344727,-72.680511l-8.008423,49.423706l-88.084473,-87.218994c119.509033,179.883789 146.829956,248.775055 29.361572,415.736176l-10.676636,-136.63855c24.929565,-33.529846 38.916992,-60.714294 29.36145,-101.75354l-48.046387,66.864258l-10.680176,-81.402832c8.972412,-22.206573 25.273315,-36.431824 21.356812,-72.68042l-42.710083,23.256744l-42.706299,-125.010223l0,0.000031z" id="path3875"/>
   </g>
   <g id="svg_4">
    <path fill="#008000" stroke="#007f00" stroke-width="5" d="m195.223236,1141.536011c-35.578629,-14.947144 -28.97525,-58.750977 -40.391861,-90.227173c14.019882,23.819702 21.020493,61.359253 44.719421,66.260498c-9.272461,-16.221313 -4.358276,-30.13269 2.462692,-43.733398c-1.891266,19.121338 6.355682,33.996338 23.503448,45.143311c5.89621,-7.915161 10.386322,-16.654663 2.885223,-32.425781c7.90097,-0.964966 32.289429,20.903687 18.753342,31.015869c-6.876541,5.136963 -29.889008,23.382935 -29.889008,23.382935c-26.166443,-1.077026 11.184723,-1.789795 -22.043259,0.58374z" id="path3936"/>
    <path fill="#008000" stroke="#007f00" stroke-width="5" id="path3938" d="m396.169525,1130.15686c-26.692169,-13.402832 -21.738068,-52.680298 -30.303101,-80.904297c10.518066,21.358521 15.770111,55.019043 33.549774,59.41394c-6.956543,-14.54541 -3.269684,-27.018799 1.847565,-39.214233c-1.418884,17.145264 4.768219,30.483398 17.633057,40.47876c4.42337,-7.097412 7.792236,-14.933838 2.16452,-29.075317c5.927643,-0.865479 24.224487,18.74353 14.069214,27.810791c-5.158813,4.606323 -22.423584,20.967163 -22.423584,20.967163c-19.630829,-0.966064 8.391174,-1.605103 -16.537445,0.523193z"/>
    <path fill="#008000" stroke="#007f00" stroke-width="6" d="m317.756104,1150.408447c34.689941,-15.719604 28.251343,-61.786377 39.382935,-94.889038c-13.669769,25.050903 -20.495544,64.529663 -43.602478,69.684326c9.040802,-17.060181 4.24939,-31.689697 -2.401215,-45.992798c1.844055,20.109131 -6.19693,35.752686 -22.916504,47.475098c-5.748779,-8.323853 -10.127045,-17.514526 -2.81308,-34.100464c-7.703766,-1.015259 -31.482986,21.983276 -18.284882,32.618164c6.704651,5.402466 29.142395,24.590576 29.142395,24.590576c25.512878,-1.132568 -10.905304,-1.882324 21.492828,0.614136z" id="path3940"/>
    <path id="svg_1" fill="#00bf00" stroke="#007f00" stroke-width="5" d="m352.856964,1146.47229c-26.692047,-13.402832 -21.737976,-52.680298 -30.303101,-80.904297c10.518066,21.358521 15.770294,55.019043 33.549774,59.41394c-6.956482,-14.54541 -3.269653,-27.018799 1.847687,-39.214233c-1.418915,17.145142 4.768158,30.483276 17.633026,40.478638c4.42334,-7.09729 7.792175,-14.933716 2.164429,-29.075317c5.927643,-0.865356 24.224579,18.743652 14.069214,27.810913c-5.158722,4.606323 -22.423492,20.967041 -22.423492,20.967041c-19.630829,-0.965942 8.391174,-1.60498 -16.537537,0.523315z"/>
    <path id="svg_2" fill="#00bf00" stroke="#007f00" stroke-width="5" d="m256.606995,1155.79541c-26.692108,-13.402832 -21.738022,-52.680298 -30.303131,-80.904297c10.518127,21.358521 15.770187,55.019043 33.549866,59.41394c-6.956604,-14.54541 -3.269684,-27.018921 1.847534,-39.214233c-1.418854,17.145142 4.76828,30.483154 17.633148,40.478638c4.42334,-7.09729 7.792084,-14.933716 2.164429,-29.075317c5.927643,-0.865356 24.224487,18.743652 14.069214,27.810913c-5.158813,4.606201 -22.423492,20.967041 -22.423492,20.967041c-19.63089,-0.965942 8.391083,-1.60498 -16.537567,0.523315z"/>
   </g>
  </g>
 </g>
</svg>